<?xml version="1.0" encoding="UTF-8" standalone="no"?>
<!-- Created with Inkscape (http://www.inkscape.org/) -->

<svg
   version="1.1"
   id="svg9"
   width="343.86719"
   height="563.21765"
   viewBox="0 0 343.86718 563.21765"
   sodipodi:docname="Druckventil.svg"
   inkscape:version="1.1.1 (3bf5ae0d25, 2021-09-20)"
   xmlns:inkscape="http://www.inkscape.org/namespaces/inkscape"
   xmlns:sodipodi="http://sodipodi.sourceforge.net/DTD/sodipodi-0.dtd"
   xmlns="http://www.w3.org/2000/svg"
   xmlns:svg="http://www.w3.org/2000/svg">
  <defs
     id="defs13" />
  <sodipodi:namedview
     id="namedview11"
     pagecolor="#505050"
     bordercolor="#eeeeee"
     borderopacity="1"
     inkscape:pageshadow="0"
     inkscape:pageopacity="0"
     inkscape:pagecheckerboard="0"
     showgrid="false"
     inkscape:zoom="0.70710678"
     inkscape:cx="357.79603"
     inkscape:cy="174.65537"
     inkscape:window-width="1920"
     inkscape:window-height="1017"
     inkscape:window-x="-8"
     inkscape:window-y="-8"
     inkscape:window-maximized="1"
     inkscape:current-layer="g15" />
  <g
     inkscape:groupmode="layer"
     inkscape:label="Image"
     id="g15"
     transform="translate(-41.00637,73.840025)">
    <path
       style="fill:#000000;stroke-width:0.403627"
       d="m 316.68396,-361.16814 v -31.87958 l -2.32085,-0.26311 c -4.08119,-0.46269 -10.51,-2.16002 -14.54672,-3.84064 -17.23056,-7.17363 -29.50215,-22.65602 -32.5888,-41.11549 -1.0176,-6.08573 -0.66145,-16.04217 0.77835,-21.75877 8.60208,-34.15396 46.13895,-51.20248 77.39093,-35.14944 23.7125,12.18027 35.0097,40.2716 26.3704,65.57186 -3.0961,9.06679 -9.3332,18.09868 -16.5975,24.03457 -8.8747,7.25171 -19.8871,11.73643 -30.3099,12.34347 l -4.1348,0.24082 -0.1033,31.72492 -0.1034,31.72492 -1.9172,0.12302 -1.91721,0.12302 z m 12.22581,-36.17225 c 17.9656,-3.13293 33.151,-15.84458 39.1889,-32.80475 3.9659,-11.13986 3.7682,-24.3246 -0.529,-35.28114 -9.7721,-24.91619 -37.0111,-37.87444 -62.59088,-29.776 -12.09532,3.82933 -23.14275,13.20041 -29.05352,24.64492 -3.95005,7.64814 -5.65838,14.70247 -5.65838,23.36558 0,13.8785 4.98984,25.97539 14.73389,35.71944 7.40881,7.40881 17.01808,12.42232 27.04147,14.10852 4.42781,0.74488 12.66482,0.75632 16.86752,0.0234 z m -1.432,-38.45083 -16.02772,-16.02776 -2.13835,2.11179 c -2.43051,2.40031 -3.50825,2.63225 -4.65501,1.00181 -1.84296,-2.6203 -13.80484,-23.96474 -13.80484,-24.63296 0,-0.92298 0.75848,-1.70368 1.65518,-1.70368 0.67419,0 23.29848,13.24048 24.68146,14.44441 1.15182,1.00268 0.82132,2.16164 -1.2023,4.21615 l -1.90864,1.93779 16.04562,16.04942 16.0457,16.04942 -1.3316,1.29069 -1.3317,1.29068 z"
       id="path796" />
    <path
       style="fill:#000000;stroke-width:0.403627"
       d="m 572.95963,95.845157 v -61.46804 l -2.32085,-0.26311 c -4.08119,-0.46269 -10.51,-2.16002 -14.54672,-3.84064 -17.23056,-7.17363 -29.50215,-22.65602 -32.5888,-41.11549 -1.0176,-6.08573 -0.66145,-16.04217 0.77835,-21.75877 8.60208,-34.15397 46.13895,-51.20249 77.39092,-35.14945 23.7125,12.18028 35.0097,40.27161 26.37038,65.57187 -3.09605,9.06679 -9.33319,18.09868 -16.59752,24.03457 -8.87461,7.25171 -19.88702,11.73643 -30.30989,12.34347 l -4.13474,0.24082 -0.10334,61.93382 -0.10334,-0.77509 -1.91722,0.12302 z m 12.22583,-65.76071 c 17.96553,-3.13293 33.15101,-15.84458 39.18891,-32.80475 3.96584,-11.13986 3.76814,-24.3246 -0.52903,-35.28114 -9.77215,-24.9162 -37.01115,-37.87445 -62.59088,-29.77601 -12.09532,3.82933 -23.14275,13.20042 -29.05352,24.64493 -3.95005,7.64814 -5.65838,14.70247 -5.65838,23.36558 0,13.8785 4.98984,25.97539 14.73389,35.71944 7.40881,7.40881 17.01808,12.42232 27.04147,14.10852 4.42781,0.74488 12.66485,0.75632 16.86754,0.0234 z m -1.43198,-38.45083 -16.02776,-16.02776 -2.13835,2.11179 c -2.43051,2.40031 -3.50825,2.63225 -4.65501,1.00181 -1.84296,-2.6203 -13.80484,-23.96474 -13.80484,-24.63296 0,-0.92298 0.75848,-1.70368 1.65518,-1.70368 0.67419,0 23.29848,13.24048 24.68146,14.44441 1.15182,1.00268 0.82132,2.16164 -1.2023,4.21615 l -1.90864,1.93779 16.04566,16.04942 16.04566,16.04942 -1.33165,1.29069 -1.33165,1.29068 z"
       id="path796-1"
       sodipodi:nodetypes="ccssssssssccccccssssssssssccsssssscccccc" />
    <text
       xml:space="preserve"
       style="font-style:normal;font-weight:normal;font-size:85.3333px;line-height:1.25;font-family:sans-serif;white-space:pre;inline-size:36.252;fill:#000000;fill-opacity:1;stroke:none"
       x="-567.83868"
       y="-550.16156"
       id="text2593"><tspan
         x="-567.83868"
         y="-550.16156"
         id="tspan38634">M</tspan></text>
    <g
       id="g34981"
       transform="translate(368.61946,585.48441)">
      <g
         id="g35579"
         transform="translate(-116.18649,-16.661203)">
        <g
           id="g36342"
           transform="translate(-1302)">
          <path
             style="fill:#000000;stroke-width:1.35202;stroke-miterlimit:4;stroke-dasharray:none"
             d="m 1390.9122,-510.98778 v 36.50581 h 12.7736 c 31.5483,0 28.7634,0.27541 28.7634,2.02809 0,1.75265 2.7872,2.0281 -28.7417,2.0281 h -12.7518 l -0.3598,36.41293 -0.3597,36.41292 -64.2231,-35.58671 -64.2233,-35.5867 -0.349,99.55024 c -0.2366,67.53661 -0.6089,55.38074 -2.355,55.38074 -1.7461,0 -2.1184,12.15672 -2.3552,-55.37322 l -0.349,-99.54272 -64.2232,35.6427 -64.2231,35.64275 -0.3597,-36.47646 -0.3598,-36.47647 h -5.2773 c -7.327,0 -9.4685,-0.27737 -9.4685,-2.0281 0,-1.75074 3.5188,-2.02809 9.4902,-2.02809 h 5.2991 v -36.50581 c 0,-22.543 0.4988,-36.50579 1.3042,-36.50579 0.7172,0 30.074,16.21276 65.2372,36.02836 35.163,19.81559 64.5415,36.03684 65.2851,36.0472 0.7435,0.0109 30.1441,-16.20237 65.3344,-36.02834 35.1903,-19.82599 64.547,-36.04722 65.2372,-36.04722 0.7407,0 1.2548,14.95477 1.2548,36.50579 z m -70.0834,6.10851 -57.2387,32.14244 3.8321,2.34637 c 2.1077,1.29049 29.3862,16.49559 60.619,33.78911 31.2327,17.29352 57.2431,31.70008 57.8007,32.01459 0.5578,0.3145 1.0142,-30.54362 1.0142,-68.57362 v -69.14548 l -4.3943,2.64205 c -2.4168,1.45314 -30.1517,17.10618 -61.633,34.78454 z m -189.198,66.22544 0.3606,34.47612 61.1988,-34.00762 c 33.6595,-18.70419 60.8398,-34.37055 60.401,-34.81411 -0.4388,-0.44358 -27.9783,-16.10817 -61.1988,-34.81021 l -60.401,-34.00373 -0.3606,34.34174 c -0.1986,18.88796 -0.1986,49.85597 0,68.81781 z"
             id="path1169"
             sodipodi:nodetypes="scssscccccssscccccssscssscsssscsssscssccsssccc" />
          <path
             style="fill:none;stroke:#000000;stroke-width:4;stroke-linecap:butt;stroke-linejoin:miter;stroke-miterlimit:4;stroke-dasharray:none;stroke-opacity:1"
             d="m 1207.6096,-314.64447 h 101.5296 v 145.21823 h -101.5296 z"
             id="path30812"
             sodipodi:nodetypes="ccccc" />
          <path
             style="fill:none;stroke:#000000;stroke-width:4;stroke-linecap:butt;stroke-linejoin:miter;stroke-miterlimit:4;stroke-dasharray:none;stroke-opacity:1"
             d="m 1206.6455,-260.71153 101.597,54.17058"
             id="path31824"
             sodipodi:nodetypes="cc" />
          <path
             style="fill:none;stroke:#000000;stroke-width:4;stroke-linecap:butt;stroke-linejoin:miter;stroke-miterlimit:4;stroke-dasharray:none;stroke-opacity:1"
             d="m 1128.5734,-472.449 h -38"
             id="path35614"
             sodipodi:nodetypes="cc" />
          <path
             style="fill:none;stroke:#000000;stroke-width:4;stroke-linecap:butt;stroke-linejoin:miter;stroke-miterlimit:4;stroke-dasharray:none;stroke-opacity:1"
             d="m 1388.1984,-472.44142 h 46.2422"
             id="path35729"
             sodipodi:nodetypes="cc" />
        </g>
      </g>
    </g>
    <g
       id="g34750"
       transform="translate(1103.6976)">
      <g
         id="g38522"
         transform="translate(-506.28845)">
        <path
           style="fill:#000000"
           d="m 75.617303,94.268634 h 3.610659 l 0.2754,-15.75 0.27539,-15.75 39.749998,-0.261474 39.75,-0.261475 V 47.25716 c 0,-14.254173 0.0967,-14.988526 1.97327,-14.988526 1.86266,0 1.98878,0.82677 2.25,14.75 l 0.27673,14.75 39.75,0.261474 39.75,0.261475 0.0857,16.238525 c 0.0471,8.931189 0.0358,26.138522 -0.0251,38.238532 l -0.11081,22 3.68892,-4 c 14.55551,-15.78294 15.59308,-16.69677 17.16867,-15.12118 1.35021,1.35021 0.52893,2.5796 -7.64737,11.44762 -5.03801,5.46423 -9.16002,10.21365 -9.16002,10.55426 0,0.34062 12.65034,0.6193 33.00034,0.6193 15.22724,0 14.75,0.036 14.75,2 0,1.9658 -0.31122,2 -16.73853,2 H 243.3017 l -0.26148,39.75 -0.26148,39.75 -46.49999,0.3423 -46.5,0.3423 22,5.6577 c 19.64035,5.05087 22.03287,5.8883 22.30645,7.80771 0.28834,2.02295 -1.33681,2.54957 -27.5,8.91122 -15.29355,3.71866 -27.13145,6.99034 -26.30645,7.2704 0.825,0.28006 13.2,3.47001 27.5,7.08878 23.05781,5.83504 26,6.80421 26,8.56454 0,1.59094 -1.25631,2.324 -6.3289,3.69297 -3.4809,0.93941 -6.8559,1.89129 -7.5,2.11529 -1.10627,0.38473 32.32741,17.70679 34.17624,17.70679 0.47826,0 2.17076,-2.91177 3.76111,-6.47061 1.59035,-3.55884 3.20813,-6.37134 3.59506,-6.25 1.0168,0.31886 42.7224,40.12803 42.38896,40.46147 -0.37212,0.37212 -57.78786,-6.60292 -58.2629,-7.07796 -0.20353,-0.20353 1.27207,-3.82792 3.27913,-8.0542 2.00705,-4.22629 3.47866,-7.84179 3.27024,-8.03445 -0.20842,-0.19266 -9.41697,-4.86556 -20.46344,-10.38421 l -20.0845,-10.03391 -16.38057,4.10024 c -9.00932,2.25514 -15.72129,4.32169 -14.9155,4.59235 0.80579,0.27066 13.16507,3.45292 27.46507,7.07169 35.17738,8.90203 35.33216,8.19616 -4,18.24158 -16.5,4.21409 -31.0125,7.70159 -32.25,7.75 -1.56629,0.0613 -2.25,-0.48298 -2.25,-1.79106 0,-1.62591 3.63776,-2.78742 27,-8.62093 14.85,-3.70802 27,-6.85802 27,-7 0,-0.14198 -12.15,-3.29198 -27,-7 -25.42997,-6.34982 -27,-6.87393 -27,-9.01326 0,-2.11044 1.24015,-2.57816 17.5,-6.60014 9.625,-2.3808 17.5,-4.5698 17.5,-4.86445 0,-0.29464 -15.31463,-8.18914 -34.03251,-17.54334 -31.677778,-15.83085 -33.939588,-17.13471 -32.689458,-18.84436 1.26671,-1.73233 2.21515,-1.39996 16.685288,5.84718 l 15.34224,7.68392 26.88382,-6.71284 c 14.7861,-3.69206 26.74707,-6.84959 26.57993,-7.01674 -0.16715,-0.16714 -11.32112,-3.13957 -24.78661,-6.6054 l -24.4827,-6.3015 -27,-0.51454 -26.999998,-0.51453 -0.2658,-24.5 -0.2658,-24.5 -16.48452,-16.51104 -16.48453,-16.51105 16.50033,-16.47759 16.50032,-16.47759 V 104.53 98.268634 h -3.636059 c -38.33333,0 -39,-0.03419 -39,-2 0,-1.96579 0.66667,-2 38.97461,-2 z m -9.338551,63.500006 13,12.97114 V 144.26864 117.7975 l -13,12.97114 c -7.15,7.13413 -13,13.20913 -13,13.5 0,0.29087 5.85,6.36587 13,13.5 z m 19.06299,-64.500006 c 1.13465,0 12.3563,-3.6 24.937008,-8 12.58071,-4.4 23.12736,-8 23.43701,-8 0.30964,0 0.56299,3.6 0.56299,8 v 8 h 28.5 28.5 v -8 c 0,-4.4 0.15042,-8 0.33426,-8 0.18384,0 10.60843,3.6 23.16574,8 12.55731,4.4 23.20689,8 23.66573,8 0.45885,0 0.83426,-6.075 0.83426,-13.5 v -13.5 h -77.33332 c -42.53334,0 -77.633338,0.3 -77.999998,0.666667 -0.36667,0.366666 -0.66667,6.441666 -0.66667,13.5 0,12.29729 0.0862,12.833333 2.06299,12.833333 z M 161.27875,221.26864 h 77.99999 v -61 c 0,-33.55 -0.12304,-61.000006 -0.27343,-61.000006 -0.15039,0 -10.95038,3.565946 -23.99999,7.924326 l -23.72657,7.92434 v -8.42434 -8.424326 h -28.5 -28.5 v 8.499996 c 0,4.675 -0.12304,8.50001 -0.27343,8.50001 -0.15039,0 -11.05235,-3.60001 -24.22657,-8.00001 -13.174218,-4.4 -24.526178,-7.999996 -25.226568,-7.999996 -1.01732,0 -1.27343,12.268006 -1.27343,61.000006 v 61 z m 12,52.87189 c 1.375,-0.0141 4.3,-0.57503 6.5,-1.24656 l 4,-1.22097 -15,-3.74284 c -8.25,-2.05855 -15.9,-3.96037 -17,-4.22625 -1.1,-0.26588 2.725,1.97935 8.5,4.9894 5.775,3.01005 11.625,5.4613 13,5.44722 z m 20,-243.871896 c 15.33333,0 16,0.08333 16,2 0,1.916667 -0.66667,2 -16,2 -15.33333,0 -16,-0.08333 -16,-2 0,-1.916667 0.66667,-2 16,-2 z m 47.99999,0 c 15.33334,0 16.00001,0.08333 16.00001,2 0,1.916667 -0.66667,2 -16.00001,2 -15.33332,0 -15.99999,-0.08333 -15.99999,-2 0,-1.916667 0.66667,-2 15.99999,-2 z m 32.00001,2 c 1.91667,0 2,0.666667 2,16 0,15.333333 -0.0833,16 -2,16 -1.91667,0 -2,-0.666667 -2,-16 0,-15.333333 0.0833,-16 2,-16 z m 0,48 c 1.91667,0 2,0.666667 2,16 0,15.333336 -0.0833,15.999996 -2,15.999996 -1.91667,0 -2,-0.66666 -2,-15.999996 0,-15.333333 0.0833,-16 2,-16 z"
           id="path135"
           sodipodi:nodetypes="scccccsssccccccssssssscccccsssssssssssssssscssssssssssssssscssscccccccccccsssscccssssssscccssssscssssccssscccccsssssccsscssssssssssssssssssssssss" />
        <g
           id="g26086"
           transform="matrix(0.52342164,0,0,0.52342164,316.1143,773.8033)">
          <g
             id="g28265"
             transform="translate(270.99425,-309.2327)">
            <path
               style="fill:#000000"
               d="m -558.39617,-501.62427 c 10.1113,1.14631 26.0389,5.35153 36.04003,9.51532 42.68936,17.77294 73.09268,56.13115 80.73995,101.86516 2.52116,15.07762 1.63877,39.74507 -1.92838,53.90817 -21.31197,84.61773 -114.31097,126.85605 -191.73889,87.08405 -58.74859,-30.17708 -86.73784,-99.77441 -65.3336,-162.45673 7.67058,-22.46331 23.12333,-44.84015 41.12097,-59.54656 21.98718,-17.96638 49.27084,-29.07743 75.0939,-30.58139 0,0 15.1506,-0.67012 26.00602,0.21198 z m -36.03995,9.98337 c -44.51028,7.76196 -82.13288,39.25555 -97.09199,81.275 -9.82551,27.59941 -9.3357,60.2651 1.31068,87.41033 24.21087,61.7308 91.69652,93.83536 155.07126,73.77118 29.9666,-9.48731 57.33701,-32.70453 71.98116,-61.05873 9.78639,-18.94855 14.01884,-36.42592 14.01884,-57.8891 0,-34.3845 -12.36251,-64.355 -36.50375,-88.49624 -18.3556,-18.3556 -42.16293,-30.77675 -66.99625,-34.95438 -10.97006,-1.84546 -31.37762,-1.87381 -41.78995,-0.058 z"
               id="path796-7"
               sodipodi:nodetypes="cssssssccssssssssss" />
            <text
               xml:space="preserve"
               style="font-size:96px;line-height:1.25;font-family:sans-serif"
               x="-614.21466"
               y="-331.72198"
               id="text15541"><tspan
                 sodipodi:role="line"
                 id="tspan15539"
                 x="-614.21466"
                 y="-331.72198"
                 style="font-size:96px">M</tspan></text>
            <path
               style="fill:none;stroke:#000000;stroke-width:7.81071;stroke-linecap:butt;stroke-linejoin:miter;stroke-miterlimit:4;stroke-dasharray:none;stroke-opacity:1"
               d="m -581.71841,-572.59554 v 73.96008 h 14.93617 c 0,-24.66531 0,-49.33063 0,-73.99594"
               id="path26714"
               sodipodi:nodetypes="cccc" />
          </g>
        </g>
        <path
           style="fill:none;stroke:#000000;stroke-width:4;stroke-linecap:butt;stroke-linejoin:miter;stroke-miterlimit:4;stroke-dasharray:none;stroke-opacity:1"
           d="m 302.05996,96.26449 h 15.5691"
           id="path32435"
           sodipodi:nodetypes="cc" />
        <path
           style="fill:none;stroke:#000000;stroke-width:4;stroke-linecap:butt;stroke-linejoin:miter;stroke-miterlimit:4;stroke-dasharray:none;stroke-opacity:1"
           d="m 302.05996,94.264485 v 49.981035 h -23.08533 -1.15625"
           id="path33319"
           sodipodi:nodetypes="cccc" />
        <path
           style="fill:none;stroke:#000000;stroke-width:4;stroke-linecap:butt;stroke-linejoin:miter;stroke-miterlimit:4;stroke-dasharray:none;stroke-opacity:1"
           d="M 63.74222,96.268708 H 30.25597"
           id="path34274"
           sodipodi:nodetypes="cc" />
      </g>
    </g>
    <path
       style="fill:none;stroke:#000000;stroke-width:4;stroke-linecap:butt;stroke-linejoin:miter;stroke-miterlimit:4;stroke-dasharray:none;stroke-opacity:1"
       d="M -115.92958,96.265794 H -623.37117"
       id="path34274-1"
       sodipodi:nodetypes="cc" />
  </g>
  <g
     inkscape:groupmode="layer"
     id="layer1"
     inkscape:label="Image 1"
     transform="translate(-114.2504,-3.1607702)" />
</svg>
